<?xml version="1.0" encoding="utf-8"?>
<!-- Generator: Adobe Illustrator 25.4.1, SVG Export Plug-In . SVG Version: 6.00 Build 0)  -->
<svg version="1.1" id="Layer_1" xmlns="http://www.w3.org/2000/svg" xmlns:xlink="http://www.w3.org/1999/xlink" x="0px" y="0px"
	 width="297.64px" height="419.53px" viewBox="0 0 297.64 419.53" style="enable-background:new 0 0 297.64 419.53;"
	 xml:space="preserve">
<path style="fill:#A9DC76;" d="M119.9,39.41c-1.21,0.99-1.12,3.04-0.76,4.24c1,3.33,5.4,4.5,5.78,4.6c0.11,0.03,0.2,0.05,0.26,0.07
	c1.69,0.41,1.79-0.05,3.65,0.4c2.44,0.59,4.1,1.82,5.5,2.89c0.5,0.38,1.63,1.27,4.25,4.21c3.86,4.34,5.78,6.54,5.22,8.12
	c-0.38,1.06-1.6,1.82-2.7,1.89c-2.04,0.13-3.68-2.1-6.36-5.85c-2.28-3.19-3.31-5.46-5.42-7.15c-1.02-0.82-2.37-1.79-2.37-1.79
	c-1.19-0.87-2.1-1.47-2.37-1.65c-1.2-0.8-3.29-2.28-7.19-5.24c-1.17-0.34-2.11-0.86-2.75-1.43c-0.41-0.37-0.98-1.05-0.91-1.77
	c0.12-1.28,2.27-2,2.97-2.24c2.62-0.88,3.97-0.23,9.78,0.04c2.98,0.14,2.34-0.05,4.7,0.1c3.14,0.19,4.04,0.51,5.16-0.14
	c0.71-0.41,0.92-0.88,2.4-3.44c2.14-3.72,1.91-3.1,2.43-4.12c0.78-1.54,0.71-1.76,3.01-8.57c2.43-7.18,1.61-4.29,1.63-4.38
	c0.48-1.7,0.69-3.05,1.63-3.37c0.46-0.15,0.91,0.02,1.38,0.2c1.47,0.58,2.32,1.77,2.62,2.24c2.45,3.84,1.25,11.67,5.17,17.27
	c1.78,2.54,3.95,3.68,3.71,5.99c-0.16,1.5-1.31,3.05-2.16,2.95c-0.23-0.02-0.81-0.21-1.7-3.2c-0.65-2.22-0.98-3.33-1.05-5.4
	c-0.22-6.26-3.75-17.54-4.26-17.45c-0.38,0.07,1.6,6.54,0.19,15.04c-0.97,5.83-3.29,11.23-4.27,11.04
	c-0.67-0.13-0.43-2.78-0.9-10.46c-0.39-6.41-0.62-10.23-1.33-10.29c-0.81-0.07-2.01,4.8-2.47,8.38c-0.21,1.65-0.18,3.92-0.12,8.46
	c0.06,4.73,0.24,5.62,0.98,6.37c0.76,0.77,1.21,0.47,5.82,1.6c2.88,0.71,3.34,0.98,4.97,1.14c2.12,0.2,3.24,0.31,4.37-0.13
	c4.34-1.67,4.18-9.51,7.57-9.93c0.15-0.02,0.03,0.01,1.51,0.05c0.39,0.01,2.15,0.05,4.13,0.01c4.96-0.1,5.3-0.58,6.21-0.01
	c1.29,0.8,2.01,2.61,1.84,4.12c-0.16,1.44-1.08,2.14-5.44,5.73c-3.76,3.1-4.75,3.96-5.03,3.72c-0.64-0.55,3.47-5.89,2.79-6.47
	c-0.33-0.28-1.61,0.71-3.63,2.27c-1.95,1.51-2.24,1.93-4.11,3.44c-2.78,2.22-3.23,2.14-3.51,2.87c-0.84,2.16,2.3,4.75,4.77,7.86
	c6.27,7.92,7.63,18.56,5.74,19.69c-0.55,0.32-1.43-0.1-2.86-0.78c-1.03-0.49-1.73-1.04-3.77-2.79c-2.81-2.41-3.11-2.78-3.68-2.67
	c-1.18,0.23-0.97,2.04-3.04,3.25c-1.18,0.69-2.13,0.62-2.34,0.6c-0.24-0.02-0.66-0.09-1.17-0.34c-2.17-1.05-3.59-4.17-4.21-4.05
	c-1.5,0.3,1.59,20.07,6.35,25.45c1.59,1.8,3.22,2.72,3.22,2.72c1.75,0.99,2.35,0.7,4.67,1.72c2.78,1.22,2.73,1.99,4.53,2.39
	c2.29,0.51,5.07-0.14,5.32-1.21c0.2-0.88-1.45-1.36-4.62-4.35c-2.4-2.27-2.37-2.86-4.1-3.98c-2.21-1.43-2.78-0.81-4.49-2.09
	c-1.87-1.4-3.83-4.13-3.11-6.52c0.38-1.26,1.37-2,1.61-2.16c0,0,1.4-0.99,3.64-0.78c6.09,0.56,19.48,26.59,16.02,28.94
	c-0.18,0.12-0.58,0.19-1.36,0.33c-2.41,0.42-4.35,0.09-5.07-0.06c-1.81-0.37-1.58-0.73-4.33-1.67c-2.81-0.96-3.08-0.6-5.16-1.47
	c-1.81-0.76-1.66-1.06-3.93-2.11c-1.74-0.81-1.89-0.66-4.6-1.72c-3.66-1.42-4.17-1.99-4.84-1.62c-1.44,0.79-1.04,4.43-0.29,6.57
	c1.1,3.15,3.53,4.75,4.25,5.1c0.35,0.18,0.72,0.31,0.72,0.31c1.02,0.39,1.87,0.46,2.16,0.48c1.49,0.13,2.98,0.38,4.47,0.53
	c2.94,0.29,2.55,0.4,4.84,0.6c3.46,0.31,4.24,0.05,4.57,0.62c0.61,1.07-1.12,3.71-3.4,4.82c-0.85,0.41-0.76,0.12-4.15,0.84
	c-2.22,0.47-2.3,0.61-4.38,1.03c-2.58,0.52-2.7,0.36-3.17,0.68c-2.38,1.64-2.16,7.8,0.07,8.91c1.03,0.51,1.6-0.49,5.23-0.73
	c1.51-0.1,1.9,0.04,3.37-0.17c1.14-0.16,2.55-0.35,3.64-0.93c2.05-1.07,2.09-2.97,3.98-6.39c1.68-3.04,3-5.43,4.67-5.58
	c3.87-0.34,8.55,11.4,6.73,12.83c-0.19,0.15-1.49,0.02-4.07-0.23c-0.69-0.07-1.5-0.15-2.59-0.07c-1.1,0.08-1.66,0.13-2.1,0.43
	c-0.66,0.45-0.87,1.57-1.26,3.8c-0.41,2.34-0.62,3.51-0.45,3.82c1.1,2.02,5.64,1.36,5.96,1.31c1.4-0.22,2.42-0.68,4.11-1.45
	c3.16-1.44,3.28-2.1,4.26-2.13c3.93-0.12,8.69,10.27,6.34,12.69c-0.57,0.59-1.55,0.68-2.6,0.78c-2.82,0.26-4.04-1.11-5.07-0.44
	c-1.38,0.9-0.27,4.12-1.1,4.4c-0.7,0.24-1.43-2.07-4.05-4.08c-1.48-1.13-1.71-0.75-4.14-2.29c-2.44-1.54-2.27-1.96-4.22-3.07
	c-1.33-0.76-1.4-0.55-4.99-2.03c-2.57-1.06-2.48-1.14-4.46-1.91c-0.53-0.21-2.44-0.95-5.06-1.75c-3.2-0.98-3.16-0.73-4.9-1.39
	c-2.74-1.05-2.94-1.69-4.64-1.92c-1.25-0.17-3.95-0.2-4.58,1.07c-0.95,1.9,2.84,6.41,6.84,8.54c1.07,0.57,2.52,1.16,4.47,1.96
	c0.61,0.25,2.24,0.91,4.43,1.7c2.66,0.96,2.81,0.91,4.5,1.58c2.54,1.01,2.14,1.1,3.77,1.65c2.22,0.74,3.13,0.64,4.36,1.64
	c0.45,0.36,1.15,0.93,1.48,1.89c0.71,2.04-0.67,4.68-2.7,5.78c-1.84,1-3.78,0.49-4.19,0.38c-1.29-0.34-1.52-0.88-3.36-1.83
	c-1.35-0.7-2.78-1.44-3.83-1.42c-3.48,0.07-5.91,8.64-7.03,12.61c-1.71,6.04-3.05,13.96-0.81,15.02c0.67,0.32,2.04,0.21,2.4,0.18
	c1.22-0.1,2.11-0.45,2.81-0.74c1.08-0.45,2.37-1.17,2.96-1.76c2.99-2.98-3.2-11.51-0.26-14.56c0.98-1.02,2.69-1.14,3.86-1.23
	c1.09-0.08,2.96-0.22,4.25,1.02c0.16,0.16,0.65,0.66,0.91,1.44c1,3.02-2.8,6-1.88,7.33c0.54,0.78,1.85-0.25,4.25,0.81
	c0.77,0.34,1.28,0.73,2.51,1.12c1.07,0.33,1.6,0.5,2,0.35c1.15-0.43,0.79-2.63,1.48-6.42c0.76-4.18,1.72-4.38,1.41-6.61
	c-0.36-2.57-1.8-3.43-1.21-4.86c0.53-1.27,2.15-1.74,3.71-2.2c0,0,2.81-0.81,5.42-0.4c7.86,1.26,15.93,21.29,12.39,23.86
	c-0.92,0.67-2.45,0.03-3.06-0.22c-3.39-1.4-2.99-5.23-7.16-9.15c-1.32-1.24-2.57-2.42-3.86-2.13c-2.65,0.6-4.33,7.18-2.19,9.64
	c0.43,0.5,0.66,0.42,3.27,2.52c0.84,0.68,1.51,1.25,1.84,1.53c0,0,0.93,0.8,1.77,1.57c2.04,1.86,4.7,5.64,5.45,6.71
	c4.11,5.88,4.55,6.57,5.28,6.48c1.95-0.25,2.8-5.73,2.85-6.09c0.51-3.46-0.37-5.57,0.15-5.76c0.79-0.29,3.19,4.32,4.69,7.81
	c1.74,4.04,3.22,7.48,1.93,8.73c-0.39,0.38-0.81,0.33-6.17,0c-2.84-0.17-3.32-0.2-4.12,0c-0.31,0.08-3.79,1-4.42,3.39
	c-0.51,1.94,1.37,2.98,0.85,4.59c-0.61,1.91-4.19,3.37-6.07,2.34c-4.05-2.23-0.52-16.26-0.72-16.29
	c-0.23-0.03-1.48,18.99-5.86,19.57c-1.79,0.24-4.07-2.62-4.96-5.4c-2.68-8.42,6.78-18.26,3.79-21.33c-0.28-0.29-0.51-0.35-1.97-1.57
	c-2.15-1.8-2.23-2.15-3.33-2.93c-0.79-0.56-2.39-1.66-4.67-1.92c-1.46-0.17-3.22-0.36-3.95,0.49c-2.27,2.64,7.91,12.39,5.14,16.62
	c-0.61,0.94-2.17,2.09-3.57,1.86c-0.65-0.11-1.16-0.5-2.17-1.28c-0.52-0.4-1.27-1-2.05-1.95c-0.65-0.79-1.89-2.31-2.2-4.38
	c-0.36-2.47,0.84-4.1,0.05-4.69c-0.35-0.26-0.87-0.15-1.77,0.06c-1.3,0.3-2.2,0.86-2.41,0.99c-3.11,1.92-4.13,1.38-4.73,2.38
	c-1.54,2.58,3.87,8.44,7.08,11.92c0.86,0.93,2.04,2.12,3.77,3.26c1.74,1.14,2.44,1.18,3.69,1.91c4.05,2.37,5.34,6.98,5.4,7.2
	c0.96,3.62,0.08,8.06-1.49,8.42c-0.25,0.06-0.59,0.03-3.69-2.79c-2.16-1.97-3.24-2.95-3.9-3.78c-1.78-2.27-1.9-3.55-2.81-3.63
	c-1.21-0.1-2.46,2.06-3.02,3.55c-1.72,4.59,1.07,8.27,3.05,14.44c3.64,11.36,0.97,20.06,3.64,20.66c1.12,0.25,2.3-1.12,2.84-1.74
	c5.74-6.65-0.48-19.79,2.34-21.04c0.42-0.19,1.85,0.46,4.69,1.75c3.37,1.53,3.32,1.85,3.88,1.76c3.47-0.53,1.8-12.39,8.06-15.91
	c0.97-0.55,0.99-0.25,5.18-1.93c4.61-1.85,5.71-2.66,6.08-2.29c1.44,1.46-13.15,15.68-9.92,21.42c0.45,0.79,1.89,2.6,3.79,4.16
	c0.63,0.52,1.55,1.12,3.38,2.33c2.15,1.42,3.24,2.13,3.88,2.23c2.32,0.37,3.21-1.38,4.74-0.77c1.12,0.45,1.08,1.56,2.68,4.46
	c1.47,2.68,2.23,4.06,3,4.02c2.12-0.1,5.16-10.9,1.33-13.72c-1.48-1.09-3.95-0.97-4.74-0.93c-2.67,0.13-3.16,1.19-4.69,0.87
	c-2.88-0.59-5.2-5.22-4.04-7.56c0.17-0.34,0.33-0.47,2.88-2.33c2.9-2.11,3.13-2.28,3.33-2.69c1.18-2.53-2.68-6.83-2.88-6.7
	c-0.26,0.16,4.56,8.84,8.79,15.22c6.69,10.09,10.42,12.2,9.84,17.05c-0.45,3.81-3,4.58-3.23,9.59c-0.18,3.97,1.18,8.66,3.19,8.95
	c1.57,0.23,3.36-2.27,4.15-4.01c1.37-3.05,0.34-5.29,1.04-5.57c1.53-0.61,8.8,9.18,6.15,12.79c-0.99,1.35-3.2,1.59-6.3,1.92
	c-0.96,0.1-2.67,0.07-6.04-0.01c-3.85-0.09-3.96-0.13-5.81-0.14c-2.49-0.01-2.53,0.07-5.76,0.1c-4.12,0.03-3.63-0.11-5.95-0.04
	c-4.03,0.11-5.57,0.52-5.87-0.13c-0.32-0.7,1.33-1.4,2.53-3.89c0.94-1.95,0.43-2.54,1.43-5.24c0.66-1.79,1.44-3.88,2.54-3.93
	c1.06-0.05,1.39,1.85,3.83,4.51c1.56,1.7,2.85,3.12,3.92,2.87c2.45-0.58,3.53-9.85,0.45-11.77c-0.2-0.13-1.16-0.33-3.08-0.72
	c-3.55-0.73-3.77-0.7-4.39-1.03c-1.23-0.66-1.24-1.28-3.18-3.56c-2.03-2.39-3.04-3.59-3.8-3.5c-2.48,0.29-3.4,10.86-3.59,13.07
	c-0.5,5.74-0.42,12.74-2.57,13.43c-0.16,0.05-0.93,0.26-1.94,0.28c-1,0.02-1.66-0.15-2.37-0.28c-2.36-0.42-3.1,0.05-3.65-0.22
	c-3.47-1.67,4.92-30.01,2.08-31.8c-0.94-0.59-2-0.69-2-0.69s-0.95-0.09-1.92,0.25c-1.69,0.59-6.02,7-5.81,19.39
	c0.12,7.28,1.72,11.46-0.59,13.07c-1.18,0.82-3.02,0.73-4.21,0c-1.92-1.17-1.04-3.33-2.88-7.93c-0.49-1.23-1.83-4.28-4.45-7.08
	c-0.7-0.75-1.42-1.37-2.88-2.63c-2.58-2.23-3.09-2.33-3.46-2.34c-0.68-0.01-1.01,0.3-3.85,2.77c-2.36,2.05-2.66,2.3-2.67,2.81
	c-0.01,0.9,0.9,1.27,3.81,3.64c0.6,0.49,2.06,1.68,3.54,3.1c2.07,1.98,1.91,2.22,3.65,3.83c2.39,2.22,3.93,2.92,3.74,3.43
	c-0.26,0.71-3.21-0.85-5.44,0.38c-2.9,1.6-2.96,6.98-2.99,10.26c-0.06,6.1,1.56,10.31,0.2,11c-1.12,0.57-2.97-1.96-4.38-1.22
	c-1.07,0.56-0.43,2.23-1.8,3.77c-1.07,1.2-1.96,0.61-3.62,1.79c-0.5,0.36-3.18,2.36-2.67,4.78c0.3,1.46,1.72,2.84,3.16,2.88
	c1.23,0.04,1.75-0.95,4.6-3.32c2.67-2.21,4.02-3.31,4.71-2.94c0.85,0.45,0.83,2.86-0.15,4.62c-0.96,1.73-2.22,1.69-4.25,3.35
	c-2.71,2.22-3.79,5.01-4.27,6.22c-1.03,2.65-1.74,6.66-0.57,7.25c1.18,0.59,3.86-2.52,4.51-3.27c3.57-4.15,3.99-8.04,4.75-7.91
	c0.75,0.12,1.4,4.13-0.03,8.01c-0.99,2.67-2.42,3.81-4.87,6.48c-3.98,4.33-9.97,10.84-8.38,14.36c0.07,0.15,1.35,1.31,3.92,3.65
	c0.52,0.47,1.31,1.18,2.55,1.64c0.85,0.32,1.48,0.56,1.98,0.39c1.61-0.52,1.11-4.76,1.74-9.55c0.6-4.6,2.25-9.82,3.14-9.74
	c1.27,0.11,1.25,11.1,0.55,19.46c-1.19,14.07-3.96,16.29-5.44,17.09c-2.07,1.11-4.75,1.12-6.68-0.01
	c-4.17-2.43-4.02-9.68-2.66-10.28c0.72-0.31,1.49,1.33,4.3,2.19c0.21,0.07,3.25,0.98,3.83,0.06c0.56-0.88-1.56-2.89-3.29-5.13
	c0,0-3.31-4.29-5.44-11.94c-1.42-5.13-0.31-7.96,0.58-15.89c2.12-18.88-1.18-29.51,4.45-32.6c1.86-1.02,4.76-1.25,4.75-2.22
	c-0.01-0.84-2.18-1.61-3.57-1.91c-2.97-0.63-4.5,0.45-5.63-0.64c-0.67-0.65-0.87-1.74-0.66-2.54c0.45-1.73,2.85-2.45,4.95-3.09
	c2.05-0.62,2.22-0.27,3.03-0.72c3.34-1.85,3.53-9.4,1.63-10.28c-0.24-0.11-1.43,0.31-3.79,1.16c-0.63,0.23-1.46,0.53-2.49,1.05
	c-0.1,0.05-0.58,0.29-1.12,0.61c-2.5,1.47-3.03,2.61-4.5,3.14c-1,0.36-2.88,0.59-3.58-0.18c-2.34-2.6,10.89-14.08,7.73-20.63
	c-1.06-2.2-3.87-3.64-5.62-3.06c-1.57,0.52-2.1,2.59-4.05,11.94c-1.65,7.92-2.23,11.08-4.53,11.93c-0.84,0.31-2.35,0.48-3.38-0.34
	c-4.34-3.45,6.56-19.35,1.56-24.23c-0.97-0.95-2.57-1.49-3.68-1.05c-1.28,0.51-2.18,2.41-2.57,12.66c-0.31,8.12,0.07,11.9-2,12.94
	c-1.28,0.64-2.82-0.1-2.92-0.15c-6.15-3.07-1.37-23.14-2.81-23.4c-0.75-0.13-3.39,5-3.71,11.35c-0.28,5.54,1.25,11.33-0.64,12.19
	c-0.5,0.23-1.58,0.26-1.9,0.27c-1.11,0.03-1.87-0.16-2.52-0.28c-2.74-0.51-3.56,0.23-4.18-0.21c-2.67-1.87,8.19-18.58,4.59-21.94
	c-0.9-0.84-2.59-0.73-3.69-0.28c-6.53,2.67-3.39,21.62-7.83,22.56c-0.14,0.03-0.01-0.02-1.49-0.11c-3.63-0.21-3.73,0.11-6.05-0.06
	c0,0-3.86-0.29-5.93,0c-0.03,0-0.05,0.01-0.05,0.01c0,0.06,2.03,0.72,3.14,0.04c0.98-0.61,0.39-1.76,1.37-4.13
	c0.87-2.13,2.25-3.39,2.52-3.63c1.19-1.07,1.72-0.94,2.32-1.62c1.49-1.68,0.08-4.43-0.19-6.89c-0.73-6.88,7.76-9.04,7.78-17.28
	c0-1.27-0.19-4.16-2.1-6.33c-0.48-0.54-1.53-1.71-3.25-2.03c-0.79-0.15-1.49-0.28-1.97,0.05c-1.91,1.28,2.67,7.44,0.38,12.43
	c-1.04,2.27-2.25,1.55-5.13,4.97c-2.43,2.88-1.89,3.76-4.97,9.33c-3.43,6.2-5,6.73-4.96,9.65c0.03,2.59,1.29,4.78,0.27,5.58
	c-0.52,0.41-1.16,0.09-2.67-0.08c-3.25-0.38-4.61,0.55-5.2,0.21c-3.67-2.13,20.26-56.09,27.61-53.61c1.52,0.51,2.53,4.46,4.54,12.36
	c0,0,2.63,10.32,5.55,11.84c1.04,0.54,2.06,0.51,2.06,0.51c0.89-0.03,1.59-0.38,1.78-0.51c2.07-1.39-2.48-12.91-4.93-19.02
	c-3.33-8.29-5.31-12.91-4.01-13.86c0.59-0.43,2.09,0.17,5.08,1.38c0.54,0.22,2.93,1.19,4.07,1.9c0.98,0.61,4.01,2.91,4.85,14.66
	c0.66,9.37-0.81,14.33,1.15,15.21c1.25,0.56,3.47-0.73,4.76-2.42c5.36-7.04-6.77-19.25-1.55-31.09c0.39-0.88,1.87-4.23,3.66-4.16
	c2.92,0.12,5.9,9.26,6.39,17.5c0.41,6.93-0.72,16.76,1.81,18.82c1.24,1.01,2.69,1.43,2.69,1.43c0.83,0.24,1.95,0.57,2.59,0.28
	c2.77-1.26-3.41-14.05,1.77-20.05c0.26-0.3,1.86-2.15,3.26-1.78c1.46,0.38,1.79,2.92,3.35,12.17c0,0,1.49,8.85,4.38,12.17
	c0.89,1.02,2.02,1.64,2.02,1.64c0.7,0.38,1.42,0.78,1.9,0.69c1.72-0.33,3.48-7.59,1.38-14.59c-2.16-7.2-6.93-9.18-5.78-13.64
	c0.24-0.92,1.17-2.35,3.03-5.22c1.84-2.83,2.76-4.25,4.22-5.46c1.85-1.54,3.14-1.81,3.11-2.7c-0.04-0.94-1.5-0.91-3.7-3.17
	c-0.45-0.46-1.02-1.1-2.02-1.87c-0.91-0.69-1.37-1.04-1.84-1c-1.01,0.09-1.33,1.54-2.56,3.33c-0.97,1.41-1.34,1.35-3.13,3.22
	c-1.74,1.83-1.76,2.27-4.36,5.58c-2.58,3.28-3.89,4.92-4.71,4.74c-1.23-0.27-0.78-2.72-2.61-6.63c-1.84-3.92-4.12-5.31-3.49-6.49
	c0.53-1,2.21-0.12,5.19-1.47c0.8-0.36,1.8-1.08,3.79-2.51c0.45-0.32,1.39-1.01,3.38-2.56c2.24-1.75,3.36-2.63,3.71-2.96
	c3.09-2.95,4.83-8,3.46-9.32c-0.75-0.73-2.37-0.26-4.16,0.26c-1.31,0.38-2.34,0.96-4.41,2.14c-1.63,0.92-2.44,1.38-3.2,2
	c-1.81,1.49-1.58,2.06-2.98,2.94c-1.47,0.92-1.9,0.39-3.93,1.37c-0.56,0.27-2.04,1-3.39,2.44c-1.82,1.93-1.59,3.23-2.67,3.48
	c-1.04,0.24-2.15-0.8-4.32-2.88c-2.59-2.49-2.78-3.36-3.44-3.28c-2.15,0.27-1.66,9.65-5.46,10.98c-0.65,0.22-2.21,0.49-2.4,0.53
	c-1.12,0.19-2.19,0.37-3.55,0.32c-1.61-0.06-2.42-0.09-2.75-0.42c-1.63-1.6,5.74-8.93,8.53-18.63c2.6-9.02,0.78-18.48-1.13-18.77
	c-1.9-0.29-5.56,8.24-7.29,15.26c-1.32,5.34-2.83,15.1-5.45,15.66c-0.92,0.2-2.13,0.21-2.13,0.21c-1.08,0.01-1.76-0.12-2.61-0.22
	c-2.57-0.3-3.35,0.07-3.74-0.15c-3.14-1.79,12.83-46.35,22.83-44.48c4.39,0.82,7.24,10.52,7.9,16.2c0.89,7.62-1.04,17.4,1.34,18.26
	c0.2,0.07,1.01,0.29,2.02,0.29c1.13,0,1.97-0.28,2.6-0.49c2.98-1.02,4.47-1.53,4.75-1.9c2.08-2.78-4.42-9.67-2.32-12.12
	c0.16-0.19,0.07,0,2.81-1.6c1.13-0.66,1.66-1,2.55-1.32c1.22-0.44,1.82-0.66,2.26-0.49c1.85,0.71-0.22,6.32,2.45,8.6
	c1.08,0.91,2.77,1.16,3.99,0.67c1.36-0.53,2.06-1.92,3.59-9.09c1.74-8.19,1.44-9.29,0.86-9.6c-0.68-0.37-1.33,0.57-4.82,2.02
	c-1.18,0.49-2.62,1.09-4.53,1.5c-1.6,0.35-2.84,0.39-5.3,0.47c-4.19,0.14-4.59-0.26-4.75-0.52c-0.55-0.88,0.28-2.46,1.07-3.34
	c0.74-0.83,1.4-0.98,4.52-2.14c0,0,1.77-0.66,4.37-1.69c3.09-1.22,2.9-1.26,4.34-1.75c2.85-0.98,3.09-0.65,4.9-1.47
	c0.85-0.38,0.9-0.5,4.02-2.53c3.45-2.24,4.03-2.52,4.03-3.13c-0.02-1.34-2.87-2.36-4.29-2.69c-0.55-0.13-2.59-0.55-5.07,0.18
	c-2.1,0.62-2,1.31-4.53,2.21c-1.91,0.68-2.01,0.29-4.28,1.06c-2.04,0.69-2.08,1.04-3.98,1.61c-2.18,0.65-2.34,0.25-3.77,0.86
	c-0.53,0.23-0.85,0.43-3.58,2.47c-2.44,1.82-2.7,2.05-3.18,1.98c-1.31-0.2-1.13-2.17-3.17-4.1c-1.96-1.86-3.94-1.76-3.96-2.67
	c-0.01-0.56,0.74-0.82,3.98-2.62c2.36-1.31,2.26-1.34,4.04-2.27c1.41-0.74,2.42-1.27,3.87-1.9c1.45-0.62,2.46-1.05,3.89-1.39
	c1.1-0.26,1.18-0.17,3.63-0.51c1.77-0.25,2.83-0.45,4.81-0.83c3.81-0.73,4.12-0.96,4.25-1.29c0.38-1.01-1.24-2.5-3.16-4.25
	c-1.48-1.35-2.31-2.11-3.73-2.66c-1.65-0.63-3.05-0.58-4.89-0.5c-1.48,0.06-2.89,0.12-4.53,0.79c-1.55,0.63-1.45,1.04-3.82,2.45
	c-2.37,1.41-2.67,1.12-4.45,2.31c-1.01,0.68-0.95,0.8-3.57,3.09c-3.27,2.86-3.95,3.19-4.48,3.39c-1.15,0.44-3.91,1.16-4.92,0
	c-0.72-0.84-0.21-2.27,2.95-9.03c2.78-5.96,4.14-8.6,5.17-8.39c0.23,0.05,0.27,0.21,1.51,1.93c1.44,2.01,1.63,2.12,1.78,2.18
	c1.77,0.71,5.93-2.9,5.33-5.1c-0.55-2.04-4.77-1.42-5.52-3.73c-0.34-1.07,0.38-1.75,2.58-5.66c2.62-4.67,2.76-5.8,3.7-5.88
	c1.97-0.16,4,4.67,5.2,7.52c2.16,5.14,2.29,8.29,3.73,8.46c0.94,0.11,1.92-1.11,3.67-3.31c1.78-2.23,2.22-3.56,2.96-3.47
	c0.99,0.12,0.69,2.58,2.43,3.89c1.32,0.99,3.48,1.09,4.8,0.33c3.61-2.05,1.9-10.92,1.26-14.21c-0.86-4.44-2.09-10.83-6.57-12.97
	c-1.54-0.73-3.86-1.16-5.38-1.44c-2.56-0.47-3.86-0.69-4.45-0.14c-1.67,1.55,0.17,8.05,3.78,9.31c2.12,0.74,3.46-0.81,4.79,0.11
	c2.14,1.49,2.03,7.87-1.17,9.33c-1.8,0.82-4.13-0.11-5.44-1.23c-0.66-0.57-1.32-1.79-2.63-4.25c-1.4-2.61-1.73-3.58-2.87-4.03
	c-0.63-0.25-1.27-0.25-2.48-0.26c-1.32-0.01-1.66,0.18-2.68,0.18c-1.06,0-2.59-0.21-3.12-0.6c-3.01-2.25,8-24.59,11.93-23.42
	c0.25,0.07,1.01,1.05,2.54,3.01c1.76,2.25,1.97,2.69,2.86,3.38c0.6,0.46,1.54,0.88,3.42,1.71c1.52,0.67,2.64,1.16,4.19,1.64
	c2.19,0.67,3.29,1.01,3.69,0.69c1.48-1.16-0.76-7.52-4.75-11.43c-0.89-0.87-1.69-1.64-3-2.17c-3.28-1.32-6.15,0.29-6.68-0.71
	c-0.42-0.79,1.07-2.4,2.03-3.42c0.4-0.43,1.23-1.27,3.65-3c2.66-1.9,3.5-2.21,3.54-3.02c0.05-1.03-1.2-2.06-2.32-2.49
	c-0.92-0.36-2.38-0.55-7.1,1.52c-4.03,1.77-5.19,2.89-5.77,2.41c-0.76-0.62,0.79-2.86,2.35-7.89c1.56-5,1.51-7.56,2.72-7.76
	c1.09-0.18,1.48,1.87,4.48,3.99c1.07,0.76,2.99,2.12,5.49,2.23c2.24,0.11,2.49-0.89,5.29-1.04c1.76-0.09,2.12,0.28,5.24,0.74
	c4.26,0.63,6.4,0.95,6.96,0.06c0.69-1.1-1.89-2.7-4.45-7.64c-2.34-4.5-2.03-6.72-4.4-7.97c-1.5-0.79-2.09-0.14-4.58-1.26
	c-1.21-0.55-2.2-1.27-4.17-2.73c-2.16-1.59-2.14-1.78-3.9-3.03c-0.8-0.57-1.98-1.31-4.31-2.76c-3.5-2.18-2.79-1.67-4.41-2.71
	c-3.08-1.96-3.7-2.56-5.27-2.87C122.37,38.88,120.92,38.58,119.9,39.41z"/>
<line style="fill:none;stroke:#A9DC76;stroke-miterlimit:10;" x1="135.7" y1="79.43" x2="153.23" y2="79.43"/>
<line style="fill:none;stroke:#A9DC76;stroke-miterlimit:10;" x1="144.73" y1="285.3" x2="162.12" y2="285.3"/>
</svg>
